<?xml version="1.0" encoding="utf-8"?>
<!-- Generator: Adobe Illustrator 24.2.3, SVG Export Plug-In . SVG Version: 6.00 Build 0)  -->
<svg version="1.1" xmlns="http://www.w3.org/2000/svg" xmlns:xlink="http://www.w3.org/1999/xlink" x="0px" y="0px"
	 viewBox="0 0 917.2159424 199.3640594" style="enable-background:new 0 0 917.2159424 199.3640594;" xml:space="preserve">
<style type="text/css">
	.st0{fill:#90B1E6;}
	.st1{fill:#FF00B1;}
	.st2{fill:#FF00CF;}
	.st3{fill:#DD90E6;}
</style>
<g id="Слой_7">
	<path class="st0" d="M767.1503906,0.0157471c-7.6181641,14.1489868-15.2363281,28.2980347-22.8544922,42.4470215
		c19.6854248,0.0076294,39.3709106,0.0151978,59.0563354,0.0228271c1.0026245-0.154541,2.7744751-0.2896729,4.7964478,0.3486938
		c1.0818481,0.3416748,4.2411499,1.3392944,5.4067993,4.1860962c0.9240112,2.2567749,0.1083984,4.4874268-0.6104736,6.4533081
		c-0.6499023,1.7774658-1.5326538,3.0922241-2.1801147,3.9243774c-0.7997437,1.4064331-8.9495239,15.7410278-9.7672119,17.1796265
		c-17.2639771,30.3716431-20.6082153,36.286377-26.0749512,45.6965942
		c-3.6364136,6.2596436-9.1051636,15.6032104-15.9588623,27.0340576c-1.8296509,2.5248413-3.7421875,4.2359619-5.1451416,5.3197632
		c-3.6692505,2.8348389-7.1824951,3.9527588-9.0695801,4.534668c-2.3626099,0.7283325-4.4229736,1.0587769-5.9301147,1.2208862
		c-3.6677856,0.003418-12.9996338,0.0095215-16.6674194,0.0109863c-13.4143677,0.0053101-26.8331909,0.0024414-40.2561646-0.0088501
		c-7.3547363,13.6594238-14.7094116,27.3188477-22.064209,40.9782715c2.046936-0.0006714,30.7836914-0.0076294,32.8553467-0.0079346
		c15.1410522-0.0027466,77.4727783-0.0027466,92.6138306,0c3.3797607-0.2023315,7.8397827-0.7028198,12.9502563-1.9473267
		c10.833374-2.6380005,18.2542114-7.0757446,20.1448364-8.2409668c8.9872437-5.5388794,14.2506714-11.8503418,18.6186523-17.1798096
		c3.828064-4.6707153,5.8553467-7.9760132,13.5170898-21.104126c8.1651611-13.9903564,14.3774414-24.8261108,17.354248-29.9991455
		c3.4630127-6.0178833,8.0353394-13.8373413,17.1798096-29.4760742c5.6676636-9.692627,10.6942139-19.7821045,16.9181519-29.1271362
		c0.3164673-0.4751587,5.855957-8.7891235,10.9880981-19.7959595c1.026001-2.2005005,2.9666138-6.505188,3.8370972-12.3834839
		c0.8604736-5.8109131,0.1224976-9.4271851-0.0872192-10.3775024c-0.0001221-0.0003052-0.850708-3.8547363-2.9650879-7.4127197
		c-3.7401123-6.2940063-16.4110718-11.9539795-33.0514526-12.3040161
		C842.8533936,0.010437,805.0018921,0.0131836,767.1503906,0.0157471z"/>
	<path class="st0" d="M744.5220947,42.6408081"/>
</g>
<g id="I">
	<path class="st0" d="M0.1173072,199.3640594c31.733675,0,63.46735,0,95.2010269,0
		c35.7730331-66.4494324,71.5460892-132.8988647,107.3191299-199.3482819c-31.50354,0-63.0070648,0-94.5105972,0
		C72.4729614,64.9066772,0.6353056,195.6794891,0.1173072,196.8841095"/>
	<path class="st0" d="M154.9970093,199.3640289c31.7336731,0,63.4673462,0,95.2010193,0
		c35.7730408-66.4494171,71.5461121-132.8988342,107.3191528-199.3482666c-31.50354,0-63.0070801,0-94.5106201,0
		c-35.6539001,64.8908997-107.4915466,195.6637115-108.009552,196.8683167"/>
	<path class="st1" d="M0.1173072,196.8841095"/>
	<path class="st2" d="M0.1173072,196.8841095"/>
	<path class="st2" d="M0,196.8101501"/>
</g>
<g id="Слой_4">
	<path class="st3" d="M357.5171814,0.0157471c-7.5172729,13.963562-15.0345764,27.927124-22.5518494,41.890686
		c77.7538757-0.2848511,134.4563904-0.0645142,142.1454163,0.1430664c0.0000916,0,6.9936218,0.0794678,11.8601379,3.8370972
		c0.862793,0.6661987,2.2306519,1.7469482,3.1394653,3.6627808c0.3960876,0.835083,0.7483826,1.9202271,0.8721008,3.6625977
		c0.2647095,3.7280273-0.7767029,6.8071289-1.2209473,8.0230713c-2.7885437,7.6329346-9.8413086,17.9328003-10.4648132,18.836792
		c-44.7081299,0-89.4162903,0-134.1244202,0c-3.4301453,5.3486938-6.860321,10.6973877-10.2904663,16.0460205
		c-2.2987671,3.138855-4.8285217,7.0890503-7.1509705,11.8601685c-2.417572,4.9665527-4.0001221,9.5686646-5.0579834,13.4298706
		c44.4755859,0.1162109,88.9511719,0.232666,133.4267883,0.348877
		c-5.3409119,8.8212891-10.4941101,18.0742798-15.3920898,27.7754517c-0.4847717,0.9602051-0.964386,1.9193726-1.4389038,2.8778076
		c-0.1348267,0.5274658-0.5713501,1.9398804-1.917511,3.0579224c-1.4147034,1.1751099-3.0790405,1.2512817-4.4049683,1.3024902
		c-2.7054443,0.104248-6.2246704,0.163208-10.4212952,0.0435791c-12.8092041,0.0217896-23.1043091,0.029541-29.5447083,0.0327759
		c-24.2282104,0.012146-66.5442505-0.0712891-104.0128174-0.0219727
		c-5.7435913,0.0075684-12.6580811,0.0197754-17.8851013,0.0311279c-1.5781555,2.9314575-3.1562805,5.862915-4.734436,8.7943726
		c-4.0198975,7.4671021-6.8943176,12.8064575-6.8965454,12.8105469c-7.0478821,13.0734253-7.6424103,14.1038818-8.369873,15.5472412
		c-0.216217,0.4290161-1.1285248,2.2523193-2.4668121,4.6242065c-0.1808929,0.3206177-0.3288727,0.5791016-0.4165497,0.7317505
		c3.8104095,0,7.6208801,0,11.4313049,0c81.1001282,0,162.2003174,0,243.3004761,0
		c1.7092285-2.5205078,4.2885437-6.3794556,7.3253784-11.1555786c5.9501953-9.3580933,8.6380615-14.3441772,16.5256958-27.6882935
		c4.9041748-8.2966919,4.3168335-7.1334229,10.8572998-18.1171875
		c6.4105225-10.7655029,11.5294189-19.5318604,14.8470459-25.2463989
		c-6.9547729-3.8807373-13.9095459-7.7614746-20.8643188-11.6422119
		c11.6421509-4.9924927,23.2842407-9.9851685,34.9263916-14.9777222
		c5.4215088-8.1994629,10.0144043-15.2497559,13.6043091-20.7989502
		c14.8657227-22.9789429,10.1730347-16.5681763,13.211853-20.9295654c1.2365723-1.7749023,3.6498413-5.1846924,6.017334-10.2033081
		c1.107666-2.3480835,2.5761108-5.5057983,3.597229-9.8762207c0.9885254-4.2305908,1.9088135-8.1694946,0.7849121-13.015686
		c-0.3585205-1.5459595-1.4672241-6.0629883-5.3632202-9.9416504c-4.921936-4.9000244-11.8403931-5.5716553-15.5664673-5.7555542
		C572.1143799-0.6119385,481.658844-0.7598267,357.5171814,0.0157471z"/>
</g>
<g id="Слой_5">
	<path class="st3" d="M564.630249,199.3640137c31.7336426,0,63.4673462,0,95.2009888,0
		c7.3549805-13.6593018,14.7097168-27.3186646,22.064209-40.9782104
		c28.421875-52.7880859,56.84021-105.578125,85.2549438-158.3700562c-31.50354,0-63.0070801,0-94.5106201,0
		c-36.0031738,65.6228027-72.0063477,131.2455444-108.0095215,196.8683472
		C564.630249,197.7107544,564.630249,198.5373535,564.630249,199.3640137z"/>
</g>
</svg>
